<svg width="24" height="23" viewBox="0 0 24 23" fill="none" xmlns="http://www.w3.org/2000/svg">
<path d="M12 20.9709C11.37 20.9709 10.78 20.7499 10.34 20.3352L8.82001 18.9344C8.70001 18.8239 8.38 18.7041 8.22 18.7041H6.06C4.76 18.7041 3.70999 17.7364 3.70999 16.5384V14.5479C3.70999 14.4005 3.57999 14.1056 3.45999 13.995L1.94 12.5943C1.5 12.1888 1.25 11.645 1.25 11.0644C1.25 10.4839 1.49 9.94017 1.94 9.53469L3.45999 8.13394C3.57999 8.02335 3.70999 7.72848 3.70999 7.58103V5.5906C3.70999 4.3926 4.76 3.4249 6.06 3.4249H8.22C8.38 3.4249 8.70001 3.3051 8.82001 3.19451L10.34 1.79376C11.22 0.982809 12.78 0.982809 13.66 1.79376L15.18 3.19451C15.3 3.3051 15.62 3.4249 15.78 3.4249H17.94C19.24 3.4249 20.29 4.3926 20.29 5.5906V7.58103C20.29 7.72848 20.42 8.02335 20.54 8.13394L22.06 9.53469C22.5 9.94017 22.75 10.4839 22.75 11.0644C22.75 11.645 22.51 12.1888 22.06 12.5943L20.54 13.995C20.42 14.1056 20.29 14.4005 20.29 14.5479V16.5384C20.29 17.7364 19.24 18.7041 17.94 18.7041H15.78C15.62 18.7041 15.3 18.8239 15.18 18.9344L13.66 20.3352C13.22 20.7499 12.63 20.9709 12 20.9709ZM4.51999 13.0181C4.91999 13.3867 5.20999 14.0319 5.20999 14.5479V16.5384C5.20999 16.9715 5.59 17.3218 6.06 17.3218H8.22C8.78 17.3218 9.48001 17.5889 9.88 17.9575L11.4 19.3583C11.72 19.6532 12.28 19.6532 12.6 19.3583L14.12 17.9575C14.52 17.5889 15.22 17.3218 15.78 17.3218H17.94C18.41 17.3218 18.79 16.9715 18.79 16.5384V14.5479C18.79 14.0319 19.08 13.3867 19.48 13.0181L21 11.6174C21.16 11.4699 21.25 11.2764 21.25 11.0644C21.25 10.8525 21.16 10.6591 21 10.5116L19.48 9.11082C19.08 8.74221 18.79 8.09709 18.79 7.58103V5.5906C18.79 5.15748 18.41 4.8072 17.94 4.8072H15.78C15.22 4.8072 14.52 4.54001 14.12 4.1714L12.6 2.77064C12.28 2.47575 11.72 2.47575 11.4 2.77064L9.88 4.1714C9.48001 4.54001 8.78 4.8072 8.22 4.8072H6.06C5.59 4.8072 5.20999 5.15748 5.20999 5.5906V7.58103C5.20999 8.09709 4.91999 8.74221 4.51999 9.11082L3 10.5116C2.84 10.6591 2.75 10.8525 2.75 11.0644C2.75 11.2764 2.84 11.4699 3 11.6174L4.51999 13.0181Z" fill="white"/>
<path d="M15.0002 14.7513C14.4402 14.7513 13.9902 14.3366 13.9902 13.8297C13.9902 13.3229 14.4402 12.9082 14.9902 12.9082C15.5402 12.9082 15.9902 13.3229 15.9902 13.8297C15.9902 14.3366 15.5502 14.7513 15.0002 14.7513Z" fill="white"/>
<path d="M9.01001 9.22198C8.45001 9.22198 8 8.80729 8 8.30044C8 7.7936 8.45 7.37891 9 7.37891C9.55 7.37891 10 7.7936 10 8.30044C10 8.80729 9.56001 9.22198 9.01001 9.22198Z" fill="white"/>
<path d="M8.99945 14.5186C8.80945 14.5186 8.61945 14.4541 8.46945 14.3159C8.17945 14.0487 8.17945 13.6063 8.46945 13.3391L14.4695 7.80981C14.7595 7.54256 15.2395 7.54256 15.5295 7.80981C15.8195 8.07705 15.8195 8.51945 15.5295 8.78669L9.52945 14.3159C9.37945 14.4541 9.18945 14.5186 8.99945 14.5186Z" fill="white"/>
</svg>
