<svg width="24" height="23" viewBox="0 0 24 23" fill="none" xmlns="http://www.w3.org/2000/svg">
<path d="M9 20.3672H15C20 20.3672 22 18.5242 22 13.9165V8.38727C22 3.7796 20 1.93652 15 1.93652H9C4 1.93652 2 3.7796 2 8.38727V13.9165C2 18.5242 4 20.3672 9 20.3672Z" stroke="white" stroke-width="1.5" stroke-linecap="round" stroke-linejoin="round"/>
<path d="M16.2799 12.6359C15.1499 13.6773 13.5299 13.9998 12.0999 13.5851L9.50995 15.9627C9.32995 16.1378 8.95995 16.2484 8.68995 16.2115L7.48995 16.0641C7.08995 16.018 6.72995 15.6678 6.66995 15.3084L6.50995 14.2026C6.46995 13.963 6.59995 13.622 6.77995 13.4469L9.35995 11.0693C8.91995 9.75154 9.25995 8.25866 10.3899 7.21732C12.0099 5.72443 14.6499 5.72443 16.2799 7.21732C17.8999 8.701 17.8999 11.1338 16.2799 12.6359Z" stroke="white" stroke-width="1.5" stroke-miterlimit="10" stroke-linecap="round" stroke-linejoin="round"/>
<path d="M10.4501 15.0962L9.6001 14.3037" stroke="white" stroke-width="1.5" stroke-miterlimit="10" stroke-linecap="round" stroke-linejoin="round"/>
<path d="M13.3945 9.9541H13.4035" stroke="white" stroke-width="2" stroke-linecap="round" stroke-linejoin="round"/>
</svg>
