<svg width="24" height="24" viewBox="0 0 24 24" fill="#fff" xmlns="http://www.w3.org/2000/svg">
<path fill-rule="evenodd" clip-rule="evenodd" d="M20.6479 6.12599C19.1997 4.32932 16.8793 3.58315 14.7139 4.22945C14.1847 4.3874 13.8837 4.94446 14.0416 5.47368C14.1996 6.00289 14.7567 6.30386 15.2859 6.14591C16.6655 5.73414 18.1474 6.21066 19.0908 7.3811C20.052 8.57361 20.2724 10.2627 19.6493 11.6945C19.0347 13.1067 17.7176 13.9999 16.2803 14.0001C16.257 14.0001 16.2338 14.0009 16.2109 14.0025C16.1404 14.0009 16.0698 14.0001 15.9991 14.0001C15.4468 14.0006 14.9994 14.4486 14.9999 15.0009C15.0003 15.5532 15.4484 16.0006 16.0007 16.0001C18.4383 15.9982 20.7361 17.3112 22.1569 19.538C22.4539 20.0036 23.0722 20.1402 23.5378 19.8431C24.0033 19.5461 24.14 18.9278 23.8429 18.4622C22.7949 16.8196 21.3502 15.5645 19.6999 14.8099C20.4567 14.2179 21.0761 13.4279 21.4832 12.4926C22.4021 10.3812 22.0783 7.9006 20.6479 6.12599ZM7.99988 4.00012C4.68617 4.00012 1.99988 6.68641 1.99988 10.0001C1.99988 11.9504 2.93038 13.6833 4.37164 14.7792C2.69209 15.5301 1.22105 16.7968 0.157223 18.4617C-0.140155 18.9271 -0.00395715 19.5454 0.461429 19.8428C0.926816 20.1402 1.54516 20.004 1.84254 19.5386C3.26464 17.313 5.56201 16.0002 7.99978 16.0001C10.4376 16 12.735 17.3126 14.1573 19.538C14.4547 20.0034 15.073 20.1396 15.5384 19.8421C16.0038 19.5447 16.1399 18.9264 15.8425 18.461C14.7786 16.7964 13.3077 15.5298 11.6283 14.7791C13.0694 13.6832 13.9999 11.9503 13.9999 10.0001C13.9999 6.68641 11.3136 4.00012 7.99988 4.00012ZM3.99988 10.0001C3.99988 12.2092 5.79067 14 7.99975 14.0001H7.99988C10.209 14.0001 11.9999 12.2093 11.9999 10.0001C11.9999 7.79098 10.209 6.00012 7.99988 6.00012C5.79074 6.00012 3.99988 7.79098 3.99988 10.0001Z" fill="#9197B3"/>
</svg>
