<svg width="24" height="24" viewBox="0 0 24 24" fill="#fff" xmlns="http://www.w3.org/2000/svg">
<path fill-rule="evenodd" clip-rule="evenodd" d="M2 21C2 21.5523 2.44772 22 3 22C3.51284 22 3.93551 21.614 3.99327 21.1166L4 21V3C4 2.44772 3.55228 2 3 2C2.48716 2 2.06449 2.38604 2.00673 2.88338L2 3V21ZM7.76923 20H14.2308C15.7602 20 17 18.6569 17 17V16C17 14.3431 15.7602 13 14.2308 13H7.76923C6.23983 13 5 14.3431 5 16V17C5 18.6569 6.23983 20 7.76923 20ZM14.1111 18H7.88889C7.39797 18 7 17.5523 7 17V16C7 15.4477 7.39797 15 7.88889 15H14.1111C14.602 15 15 15.4477 15 16V17C15 17.5523 14.602 18 14.1111 18ZM5 8V7C5 5.34315 6.42709 4 8.1875 4H18.8125C20.5729 4 22 5.34315 22 7V8C22 9.65685 20.5729 11 18.8125 11H8.1875C6.42709 11 5 9.65685 5 8ZM7 7V8C7 8.55228 7.48502 9 8.08333 9H18.9167C19.515 9 20 8.55228 20 8V7C20 6.44772 19.515 6 18.9167 6H8.08333C7.48502 6 7 6.44772 7 7Z" fill="#9197B3"/>
</svg>
