<svg width="24" height="23" viewBox="0 0 24 23" fill="none" xmlns="http://www.w3.org/2000/svg">
<path d="M15 21.0161H9C3.57 21.0161 1.25 18.8782 1.25 13.8742V8.34503C1.25 3.34109 3.57 1.20312 9 1.20312H15C20.43 1.20312 22.75 3.34109 22.75 8.34503V13.8742C22.75 18.8782 20.43 21.0161 15 21.0161ZM9 2.58543C4.39 2.58543 2.75 4.09675 2.75 8.34503V13.8742C2.75 18.1225 4.39 19.6338 9 19.6338H15C19.61 19.6338 21.25 18.1225 21.25 13.8742V8.34503C21.25 4.09675 19.61 2.58543 15 2.58543H9Z" fill="white"/>
<path d="M12.0006 12.1043C11.8706 12.1043 11.7406 12.0766 11.6206 12.0121L6.32061 9.19221C5.96061 8.99869 5.84059 8.57478 6.05059 8.25224C6.26059 7.92049 6.72061 7.80991 7.07061 8.00343L11.9906 10.6298L16.8806 8.02186C17.2406 7.82834 17.7006 7.94814 17.9006 8.27067C18.1006 8.59321 17.9806 9.02633 17.6306 9.21064L12.3706 12.0121C12.2606 12.0674 12.1306 12.1043 12.0006 12.1043Z" fill="white"/>
<path d="M12 17.1181C11.59 17.1181 11.25 16.8048 11.25 16.427V11.4138C11.25 11.036 11.59 10.7227 12 10.7227C12.41 10.7227 12.75 11.036 12.75 11.4138V16.427C12.75 16.8048 12.41 17.1181 12 17.1181Z" fill="white"/>
<path d="M12.0002 17.3292C11.4202 17.3292 10.8503 17.2094 10.3903 16.979L7.19025 15.3387C6.23025 14.8503 5.49023 13.6799 5.49023 12.6662V9.54223C5.49023 8.53776 6.24025 7.3674 7.19025 6.86977L10.3903 5.22944C11.3103 4.75946 12.6902 4.75946 13.6102 5.22944L16.8102 6.86977C17.7702 7.35819 18.5103 8.52855 18.5103 9.54223V12.6662C18.5103 13.6707 17.7602 14.8411 16.8102 15.3387L13.6102 16.979C13.1502 17.2186 12.5802 17.3292 12.0002 17.3292ZM12.0002 6.27078C11.6702 6.27078 11.3502 6.32607 11.1202 6.44587L7.92026 8.0862C7.43026 8.33502 6.99023 9.03538 6.99023 9.54223V12.6662C6.99023 13.1823 7.43026 13.8734 7.92026 14.1223L11.1202 15.7626C11.5802 16.0022 12.4202 16.0022 12.8802 15.7626L16.0802 14.1223C16.5702 13.8734 17.0103 13.1731 17.0103 12.6662V9.54223C17.0103 9.02618 16.5702 8.33502 16.0802 8.0862L12.8802 6.44587C12.6502 6.32607 12.3302 6.27078 12.0002 6.27078Z" fill="white"/>
</svg>
