<svg width="24" height="24" viewBox="0 0 24 24" fill="none" xmlns="http://www.w3.org/2000/svg">
<path fill-rule="evenodd" clip-rule="evenodd" d="M19.9932 1.88338C19.9354 1.38604 19.5127 1 18.9999 1C18.4476 1 17.9999 1.44772 17.9999 2V4H15.9999L15.8833 4.00673C15.3859 4.06449 14.9999 4.48716 14.9999 5C14.9999 5.55228 15.4476 6 15.9999 6H17.9999V8L18.0066 8.11662C18.0644 8.61396 18.4871 9 18.9999 9C19.5522 9 19.9999 8.55228 19.9999 8V6H21.9999L22.1165 5.99327C22.6139 5.93551 22.9999 5.51284 22.9999 5C22.9999 4.44772 22.5522 4 21.9999 4H19.9999V2L19.9932 1.88338ZM16.2363 14.7888C18.5631 15.6891 20.5586 17.3215 21.8573 19.4854C22.1415 19.9589 21.9881 20.5732 21.5145 20.8574C21.041 21.1416 20.4267 20.9882 20.1425 20.5146C18.4678 17.7243 15.3641 16 12 16C8.63576 16 5.53209 17.7242 3.85732 20.5145C3.57309 20.988 2.95881 21.1415 2.48527 20.8572C2.01174 20.573 1.85827 19.9587 2.1425 19.4852C3.4872 17.2448 5.57877 15.5742 8.01168 14.696C5.61021 13.0269 4.42804 10.0183 5.26981 7.1052C6.31403 3.49147 10.0968 1.33006 13.8406 2.18722C14.379 2.31048 14.7155 2.84683 14.5922 3.38518C14.469 3.92353 13.9326 4.26004 13.3943 4.13678C10.6735 3.51386 7.93767 5.07709 7.1912 7.66041C6.44826 10.2315 7.93545 12.9196 10.5818 13.7517C13.2413 14.5879 16.103 13.2448 17.0658 10.7262C17.2631 10.2104 17.8411 9.95204 18.357 10.1493C18.8729 10.3465 19.1312 10.9245 18.934 11.4404C18.3933 12.8546 17.4313 13.9998 16.2363 14.7888Z" fill="#9197B3"/>
</svg>
