<svg width="24" height="24" viewBox="0 0 24 24" fill="none" xmlns="http://www.w3.org/2000/svg">
<path d="M8 21.5523C7.72 21.5523 7.42998 21.4878 7.16998 21.3587C6.59998 21.0823 6.25 20.5294 6.25 19.9396V18.6311C3.23 18.3454 1.25 16.2995 1.25 13.369V7.83985C1.25 4.66976 3.56 2.54102 7 2.54102H17C20.44 2.54102 22.75 4.66976 22.75 7.83985V13.369C22.75 16.5391 20.44 18.6679 17 18.6679H13.23L8.96997 21.2851C8.67997 21.4602 8.34 21.5523 8 21.5523ZM7 3.91409C4.42 3.91409 2.75 5.45306 2.75 7.83062V13.3599C2.75 15.7375 4.42 17.2764 7 17.2764C7.41 17.2764 7.75 17.5898 7.75 17.9676V19.9305C7.75 20.0503 7.83 20.1055 7.88 20.1332C7.93001 20.1608 8.03001 20.1885 8.14001 20.124L12.59 17.3962C12.71 17.3225 12.86 17.2764 13.01 17.2764H17.01C19.59 17.2764 21.26 15.7375 21.26 13.3599V7.83062C21.26 5.45306 19.59 3.91409 17.01 3.91409H7Z" fill="#9197B3"/>
<path d="M11.9998 12.1445C11.5898 12.1445 11.2498 11.8312 11.2498 11.4533V11.2598C11.2498 10.1908 12.0998 9.66555 12.4198 9.46281C12.7898 9.23242 12.9098 9.07577 12.9098 8.83617C12.9098 8.37541 12.4998 7.99754 11.9998 7.99754C11.4998 7.99754 11.0898 8.37541 11.0898 8.83617C11.0898 9.214 10.7498 9.52732 10.3398 9.52732C9.92984 9.52732 9.58984 9.214 9.58984 8.83617C9.58984 7.61053 10.6698 6.61523 11.9998 6.61523C13.3298 6.61523 14.4098 7.61053 14.4098 8.83617C14.4098 9.88672 13.5698 10.412 13.2598 10.6055C12.8698 10.8451 12.7498 11.0018 12.7498 11.2598V11.4533C12.7498 11.8404 12.4098 12.1445 11.9998 12.1445Z" fill="#9197B3"/>
<path d="M12 14.4389C11.58 14.4389 11.25 14.1256 11.25 13.7478C11.25 13.37 11.59 13.0566 12 13.0566C12.41 13.0566 12.75 13.37 12.75 13.7478C12.75 14.1256 12.42 14.4389 12 14.4389Z" fill="#9197B3"/>
</svg>
