<svg width="24" height="23" viewBox="0 0 24 23" fill="none" xmlns="http://www.w3.org/2000/svg">
<path d="M10.7516 15.5645V17.4352C10.7516 19.0202 9.15158 20.3011 7.18158 20.3011C5.21158 20.3011 3.60156 19.0202 3.60156 17.4352V15.5645C3.60156 17.1495 5.20158 18.2738 7.18158 18.2738C9.15158 18.2738 10.7516 17.1403 10.7516 15.5645Z" stroke="#9197B3" stroke-width="1.5" stroke-linecap="round" stroke-linejoin="round"/>
<path d="M10.7501 13.0306C10.7501 13.4914 10.6101 13.9153 10.3701 14.2839C9.78006 15.1778 8.57004 15.7399 7.17004 15.7399C5.77004 15.7399 4.56003 15.1686 3.97003 14.2839C3.73003 13.9153 3.59009 13.4914 3.59009 13.0306C3.59009 12.2381 3.99007 11.5285 4.63007 11.0124C5.28007 10.4872 6.17003 10.1738 7.16003 10.1738C8.15003 10.1738 9.04006 10.4964 9.69006 11.0124C10.3501 11.5193 10.7501 12.2381 10.7501 13.0306Z" stroke="#9197B3" stroke-width="1.5" stroke-linecap="round" stroke-linejoin="round"/>
<path d="M10.7516 13.03V15.5643C10.7516 17.1493 9.15158 18.2736 7.18158 18.2736C5.21158 18.2736 3.60156 17.1401 3.60156 15.5643V13.03C3.60156 11.445 5.20158 10.1641 7.18158 10.1641C8.17158 10.1641 9.06161 10.4866 9.71161 11.0027C10.3516 11.5187 10.7516 12.2375 10.7516 13.03Z" stroke="#9197B3" stroke-width="1.5" stroke-linecap="round" stroke-linejoin="round"/>
<path d="M22 10.1372V12.0356C22 12.5425 21.56 12.9571 21 12.9755H19.0399C17.9599 12.9755 16.97 12.2475 16.88 11.2522C16.82 10.6717 17.0599 10.128 17.4799 9.75014C17.8499 9.39996 18.36 9.19727 18.92 9.19727H21C21.56 9.2157 22 9.63034 22 10.1372Z" stroke="#9197B3" stroke-width="1.5" stroke-linecap="round" stroke-linejoin="round"/>
<path d="M2 9.7027V7.85963C2 5.35305 3.64 3.60214 6.19 3.30725C6.45 3.27038 6.72 3.25195 7 3.25195H16C16.26 3.25195 16.51 3.26116 16.75 3.29802C19.33 3.57448 21 5.33462 21 7.85963V9.19587H18.92C18.36 9.19587 17.85 9.3986 17.48 9.74878C17.06 10.1266 16.82 10.6703 16.88 11.2509C16.97 12.2461 17.96 12.9742 19.04 12.9742H21V14.3104C21 17.075 19 18.9181 16 18.9181H13.5" stroke="#9197B3" stroke-width="1.5" stroke-linecap="round" stroke-linejoin="round"/>
</svg>
