<svg width="24" height="23" viewBox="0 0 24 23" fill="none" xmlns="http://www.w3.org/2000/svg">
<path d="M15.0006 21.0353H9.00063C7.68063 21.0353 6.58063 20.9155 5.65063 20.6575C5.31063 20.5653 5.09063 20.2612 5.11063 19.9387C5.36063 17.1833 8.39063 15.0176 12.0006 15.0176C15.6106 15.0176 18.6306 17.1741 18.8906 19.9387C18.9206 20.2704 18.7006 20.5653 18.3506 20.6575C17.4206 20.9155 16.3206 21.0353 15.0006 21.0353ZM6.72063 19.4779C7.38063 19.5977 8.13063 19.653 9.00063 19.653H15.0006C15.8706 19.653 16.6206 19.5977 17.2806 19.4779C16.7506 17.7086 14.5606 16.3999 12.0006 16.3999C9.44063 16.3999 7.25063 17.7086 6.72063 19.4779Z" fill="#9197B3"/>
<path d="M15 1.91309H9C4 1.91309 2 3.75616 2 8.36384V13.8931C2 17.3765 3.14 19.284 5.86 19.9936C6.08 17.5976 8.75 15.7085 12 15.7085C15.25 15.7085 17.92 17.5976 18.14 19.9936C20.86 19.284 22 17.3765 22 13.8931V8.36384C22 3.75616 20 1.91309 15 1.91309ZM12 13.1282C10.02 13.1282 8.42 11.6445 8.42 9.81986C8.42 7.99524 10.02 6.52077 12 6.52077C13.98 6.52077 15.58 7.99524 15.58 9.81986C15.58 11.6445 13.98 13.1282 12 13.1282Z" stroke="#9197B3" stroke-width="1.5" stroke-linecap="round" stroke-linejoin="round"/>
<path d="M11.9999 13.8198C9.60992 13.8198 7.66992 12.0228 7.66992 9.82033C7.66992 7.61788 9.60992 5.83008 11.9999 5.83008C14.3899 5.83008 16.3299 7.61788 16.3299 9.82033C16.3299 12.0228 14.3899 13.8198 11.9999 13.8198ZM11.9999 7.21238C10.4399 7.21238 9.16992 8.38275 9.16992 9.82033C9.16992 11.2671 10.4399 12.4375 11.9999 12.4375C13.5599 12.4375 14.8299 11.2671 14.8299 9.82033C14.8299 8.38275 13.5599 7.21238 11.9999 7.21238Z" fill="#9197B3"/>
</svg>
